<svg id="Layer_1" data-name="Layer 1" xmlns="http://www.w3.org/2000/svg" viewBox="0 0 1920 1080"><defs><style>.cls-1{fill:#fff;}</style></defs><path d="M696.86,550c2.92,5.73,6.87,17.63,7.48,22.42-1.92,2.45-4.62,2.2-7.21,1.83A26.85,26.85,0,0,1,686,569.72a50.47,50.47,0,0,1-10.7-9.77c-2.19-2.64-4.16-5.46-6.27-8.17a23,23,0,0,0-2-2c-.53.61-.9.85-1,1.17a19.22,19.22,0,0,0-.4,2.39c-2.93,20-15.29,31.53-33.92,36.86s-35.22.58-49.22-12.57C572,567.75,566.36,555.14,564,541c-5-29.35,12.92-65.94,49.13-77l7.3-2.22c-.07-.81,0-1.27-.16-1.55-4.87-7.91-9.64-15.88-14.71-23.65a41.33,41.33,0,0,0-10.12-10.36c-7.83-5.82-16.46-7.47-25.8-4.68-15.83,4.73-25.4,15.07-27.9,31.6-.19,1.2-.31,2.41-.45,3.61s-.29,2.32-.42,3.35c-3.93.79-16.47,1.32-21.14.9a13.25,13.25,0,0,1-.27-2.71c1-9.74,3.45-19.11,8.5-27.58C538.4,413.17,554,403.59,574.4,402.2c9.55-.65,18.37,2.08,26.53,7A61.85,61.85,0,0,1,618,424.48,144,144,0,0,1,627.25,438a737.85,737.85,0,0,1,41,78.34c2.74,6.06,5.7,12.05,9,17.83a69,69,0,0,0,7.53,10.2,13.56,13.56,0,0,0,10,5.13A11.3,11.3,0,0,1,696.86,550Zm-64.53-68c-15.8.77-31.77,10.5-39.87,23.94-11.16,18.53-5.14,38.18,7.1,49.8,6.31,6,13.89,9,22.65,8.16,12-1.12,20.75-7.23,26.45-17.77,2.73-5,3.93-10.56,4.7-16.2a15.37,15.37,0,0,0-1.52-9.36c-5.92-11.71-11.7-23.49-17.56-35.23C633.75,484.27,633.08,483.27,632.33,482Z"/><path d="M1336.61,574c.25-4.08.31-6.68.57-9.27q2.07-20.79,4.22-41.57c1.33-12.84,2.73-25.69,4.07-38.53.93-8.84,1.9-17.67,2.7-26.51a10,10,0,0,1,3.69-7.29c2.61-2.15,4.67-4.95,8.05-7,.62,3.37,1.17,6.31,1.71,9.24,1.76.21,1.89-1.24,2.38-2.23a197,197,0,0,1,23.22-36.8A101.24,101.24,0,0,1,1402.08,399a71.15,71.15,0,0,1,8-5.47,17.76,17.76,0,0,1,5-2c5.15-1.19,8.76.45,10.81,5.31a32.71,32.71,0,0,1,2.16,8.75c.85,7.25.07,14.51-.57,21.75q-1.56,17.81-3.19,35.59c-1.29,14.27-2.6,28.54-3.84,42.82a7.76,7.76,0,0,1-3.18,6.17c-4.21,3.06-8.15,6.48-12.14,9.47-1.75-.78-1.27-1.92-1.19-2.79,1.34-15.08,2.76-30.15,4.1-45.23q1.65-18.4,3.15-36.81c.21-2.61.11-5.24.07-7.86a19.85,19.85,0,0,0-.4-3.61c-1.33-6.47-5.25-8.48-11-5.43a37.49,37.49,0,0,0-6.42,4.51,78.89,78.89,0,0,0-13,14.33,151.33,151.33,0,0,0-19,35.71,47.27,47.27,0,0,0-2.41,12.43q-3,30.75-5.87,61.49c-.36,3.81-.69,7.64-.9,11.47a7.08,7.08,0,0,1-3.55,5.91C1345.07,567.91,1341.53,570.51,1336.61,574Z"/><path d="M68.86,462.87c-.84-19.45-.64-38.27,2.53-57.4a49.11,49.11,0,0,1,18-.25c-.28,2.79-.42,5.27-.78,7.72-6.32,43.05-1.22,84.84,13.53,125.65,10.32,28.58,24.62,55,42,79.85,1.76,2.51,3.39,5.09,5.12,7.7-2.41,2.84-5.47,3.48-8.54,4.58-6.24-3.37-9.3-10.29-15-14.05-2,.65-1.14,1.9-1.09,2.88.22,5.05.79,10.11.64,15.15a21.81,21.81,0,0,1-4.52,12.57c-5.64,7.42-13.22,10.26-22.36,8.85-6.25-1-11.75-3.83-16.92-7.37a100.83,100.83,0,0,1-22.39-21.69C40,602.41,26.69,575,20.26,544.35a104.19,104.19,0,0,1-1.65-33.65A67.49,67.49,0,0,1,25.05,488C32.49,473.22,44.44,465,61,463.38c1.12-.11,2.25-.1,3.38-.17S66.55,463,68.86,462.87Zm2.27,21.75c-14.41-3.45-27.79,2.44-34.65,15-3.59,6.58-5,13.72-5.24,21.12a92.68,92.68,0,0,0,3.27,26.73A172.87,172.87,0,0,0,55.86,596c5.55,8.85,11.89,17.12,19.89,24,3.87,3.32,8,6.23,12.93,7.81,9.5,3.05,17.7-1.29,20.25-10.95a29.71,29.71,0,0,0,1-9.19c-.66-10.74-2.49-21.22-8-30.78-2.37-4.15-4.47-8.47-6.46-12.82A298.19,298.19,0,0,1,72.7,491.74C72.27,489.29,71.63,486.87,71.13,484.62Z"/><path d="M1632.45,388.84a25.53,25.53,0,0,0-1.88-2.68c-9.73-10.38-21.93-14.71-35.92-14.4-9.56.22-17,4.53-22.45,12.32a47.65,47.65,0,0,0-7,16,110.06,110.06,0,0,0-2.67,39.06,51,51,0,0,0,2.66,11.15,26.85,26.85,0,0,0,19,17.88c8.12,2.26,16.34,2.9,24.51.58,3.82-1.09,7.42-3,11.35-4.59a107.85,107.85,0,0,1,9.28,14.3,21.59,21.59,0,0,1-2.75,2.32c-6.57,3.92-13.83,5.57-21.34,6.15a94.81,94.81,0,0,1-29.46-2.28,56.09,56.09,0,0,1-7.48-2.39c-10.54-4.15-17.75-11.6-21.82-22.18a68.51,68.51,0,0,1-4.18-20.68,126.24,126.24,0,0,1,5.53-46.62,59,59,0,0,1,9.77-18.68c8.24-10.41,19.06-16.05,32.28-16.71,17.76-.89,33.87,4.23,48.51,14.14a41.1,41.1,0,0,1,10.32,9.79,16.31,16.31,0,0,1-2.51,1.73C1642,384.88,1637.72,386.64,1632.45,388.84Z"/><path d="M392.22,379.34a174.65,174.65,0,0,0,30.58-7.88c9.41-3.31,18.68-7,28.44-10.7-.41,5.63-2.54,10.3-4.05,15.48-1.61.8-3.28,1.78-5.06,2.47a259.06,259.06,0,0,1-48.63,13.71,34.39,34.39,0,0,1-3.62.55c-2.83.18-4.35,1.81-5.29,4.32-1.28,3.43-2.79,6.78-4,10.24q-8.22,23.52-16.32,47.09c-.55,1.62-1,3.27-1.44,4.93-1.43,6.15.42,10.48,6,13.48a38.49,38.49,0,0,0,14.73,4.14,105.31,105.31,0,0,0,37.83-2.73c1.84-.49,3.7-.89,5.86-1.4,1.49,3.1,2.88,5.91,4.18,8.77a36,36,0,0,1,1.17,3.68,24.37,24.37,0,0,1-3.52,1.48c-3.31.85-6.62,1.76-10,2.3a159.37,159.37,0,0,1-56.16-1.11,64.58,64.58,0,0,1-18-6,48.38,48.38,0,0,1-9.13-6.05c-5.81-5.09-8-11.54-5.89-19.17.52-1.89,1.13-3.75,1.73-5.61a471.46,471.46,0,0,1,18-46.47c1.18-2.67,2.31-5.36,3.67-8.53a30,30,0,0,0-4.2-1.16c-7-.85-14.08-1.55-21.11-2.42-2.39-.3-4.74-1-7.32-1.52.23-3.4,1.87-5.75,3.72-8.47l5.6,0c8.55,0,17.09,0,25.64,0a8.85,8.85,0,0,0,7.47-3.85c6.12-7.94,12.49-15.69,18.51-23.69a13.1,13.1,0,0,1,9-5.57c4.77-.74,9.45-2.07,14.74-3.28-1,6.28-4.09,11-6.12,16.12S394.7,372.62,392.22,379.34Z"/><path d="M1255.6,522c-22.69-.24-44.73-4.63-66.5-12.33a18.26,18.26,0,0,0-1.59,3.2,42.14,42.14,0,0,0-1.35,12c.33,9,4.36,15.86,12.13,20.36a44.46,44.46,0,0,0,25,5.7,43.74,43.74,0,0,0,15.56-3.62c2.25,1,2.38,3,3.19,4.58s1.29,2.89,2.06,4.67a31.12,31.12,0,0,1-3.79,2c-12.61,4.5-25.34,4.3-38.13.85a52.19,52.19,0,0,1-17-7.78c-9.67-6.95-14.78-16.33-15-28.29a53.58,53.58,0,0,1,1.29-13.23c2.87-12.36,7.7-23.81,15.78-33.7s18.28-17,31.06-19.77a49.92,49.92,0,0,1,25.73,1.12c12.77,4,19.73,12.8,20.75,26.12a52.76,52.76,0,0,1-1.2,15,121.9,121.9,0,0,1-6.87,21.3A11.33,11.33,0,0,1,1255.6,522Zm-10.34-13.15a42.61,42.61,0,0,0,4.52-19.77c-.37-9.08-4.55-14.67-13.25-17.37-10.58-3.28-20.33-1.63-29,5.34a48,48,0,0,0-13.1,17.17,21.36,21.36,0,0,0-1,3.23C1205.14,503.15,1234.74,509.62,1245.26,508.85Z"/><path d="M1016,519.15c1.36,4,2.6,7.61,3.78,11.22a31,31,0,0,1,.67,3c-1,1.09-1.86,2.19-2.89,3.11-10.51,9.42-23,14-36.94,14.68a30.51,30.51,0,0,1-6-.52c-7.24-1.1-12.11-5.24-14.78-12a40.56,40.56,0,0,1-2.52-16.65,102.9,102.9,0,0,1,3.51-22.69A194.67,194.67,0,0,1,989.41,437a122.94,122.94,0,0,1,23.7-25.77,71.25,71.25,0,0,1,20.35-11.76c8.16-2.93,16.48-4,25-1.64,7.92,2.22,13.62,6.86,16,15a9,9,0,0,1,.27,1.79,6.05,6.05,0,0,1-.08,1.2c-3,2.78-13,9.49-17.66,11.76-.57-1.5-1.08-3-1.69-4.44-2.15-5.13-6.09-7.89-11.51-8.63a28.42,28.42,0,0,0-15.39,2.14,50.17,50.17,0,0,0-14,9.39,85.27,85.27,0,0,0-12.62,14.67,167.86,167.86,0,0,0-25.87,59.59c-1.33,6.1-2.29,12.33-.93,18.61A27,27,0,0,0,976,523c1.89,5,5.57,7.75,10.94,8.18a28.86,28.86,0,0,0,16.37-3.42c3.17-1.73,6.05-4,9-6C1013.46,521,1014.55,520.17,1016,519.15Z"/><path d="M883,454.74a105.15,105.15,0,0,1-1.37,22.19c-8.34-1.24-13.59,3.38-17.85,9.78a35.59,35.59,0,0,0-6.05,16.92,32.15,32.15,0,0,0,3.54,18.16c3.55,6.7,8.1,8.84,15.51,7.05,2.93-.71,5.76-1.84,8.64-2.76,2.31-.74,4.59-1.57,6.94-2.14,7.66-1.86,13.93.54,18.82,6.59a65.4,65.4,0,0,1,10,17.23A76.72,76.72,0,0,1,926.94,576a41.2,41.2,0,0,1-3.1,16.55,29.43,29.43,0,0,1-13.63,14.86A25,25,0,0,1,892,609.37c-1.7-.43-3-1.27-3.24-3.13-.69-4.56-1.36-9.12-2.11-14.17,1.87.3,3.2.46,4.5.75,12.08,2.66,21.4-5.79,23.57-15.59,1.59-7.18.44-14.09-2.48-20.67a43.28,43.28,0,0,0-5-8.22,10.78,10.78,0,0,0-10.73-4.22,75.43,75.43,0,0,0-8.21,2c-3.32.86-6.58,2-9.93,2.64-7.77,1.56-14.26-.76-19.63-6.64a42.28,42.28,0,0,1-9.59-18c-6.08-23-.92-43.53,14.57-61.46a26.87,26.87,0,0,1,10.14-7.5A12,12,0,0,1,883,454.74Z"/><path d="M1139.92,458c-1,1.81-2,3.76-3.06,5.65-10.79,18.5-20.89,37.36-29.34,57.07A349.1,349.1,0,0,0,1093.28,560c-.4,1.36-.81,2.71-1.28,4.05-.12.33-.48.59-.81,1a5.91,5.91,0,0,1-1.65-.38c-4.77-2.62-9.52-5.28-14-7.79-1-2.19-.13-3.88.36-5.6a357.58,357.58,0,0,1,22.09-57c7.37-15.3,15.66-30.09,24.42-44.63.7-1.17,1.58-2.24,2.34-3.3A65.33,65.33,0,0,1,1139.92,458Z"/><path d="M1163.91,421.16c-.07,4.8-1.93,9.11-6.73,11.59-4.14,2.14-9.81.75-14-3.06-5.6-5.18-6.75-13.29-2.71-19.25,3.88-5.74,10.78-7.11,16.41-3.12C1161.51,410.57,1163.87,415.07,1163.91,421.16Z"/><path class="cls-1" d="M786.33,516.2c2.91,5.73,6.87,17.63,7.48,22.42-1.92,2.44-4.62,2.19-7.21,1.82a26.86,26.86,0,0,1-11.14-4.5,50,50,0,0,1-10.7-9.78c-2.19-2.64-4.16-5.46-6.28-8.16a24.45,24.45,0,0,0-2-2c-.53.62-.91.86-1,1.18a21.3,21.3,0,0,0-.41,2.39c-2.92,20-15.28,31.52-33.92,36.86S686,557,672,543.86c-10.54-9.89-16.16-22.5-18.57-36.63-5-29.35,12.92-66,49.12-77l7.31-2.22c-.08-.81,0-1.27-.17-1.56-4.87-7.9-9.63-15.87-14.71-23.64a40.82,40.82,0,0,0-10.12-10.36c-7.82-5.82-16.45-7.48-25.79-4.69-15.84,4.73-25.41,15.08-27.91,31.61-.18,1.2-.3,2.4-.45,3.61s-.28,2.31-.41,3.35c-3.93.79-16.47,1.32-21.14.9a12.65,12.65,0,0,1-.27-2.71c1-9.74,3.45-19.11,8.5-27.58,10.49-17.59,26.06-27.17,46.48-28.56,9.56-.65,18.38,2.08,26.54,7a62,62,0,0,1,17.06,15.28,144.1,144.1,0,0,1,9.26,13.47,738.59,738.59,0,0,1,41,78.33c2.74,6.07,5.7,12.06,9,17.84a69,69,0,0,0,7.53,10.2,13.57,13.57,0,0,0,9.95,5.13A9.94,9.94,0,0,1,786.33,516.2Zm-64.53-68C706,449,690,458.71,681.93,472.16c-11.16,18.53-5.14,38.18,7.1,49.8,6.31,6,13.88,9,22.64,8.16,12-1.13,20.76-7.23,26.46-17.77,2.73-5.05,3.92-10.56,4.7-16.2a15.33,15.33,0,0,0-1.53-9.37c-5.91-11.71-11.7-23.48-17.55-35.22C723.22,450.49,722.55,449.49,721.8,448.22Z"/><path class="cls-1" d="M1391.66,605.92c.25-4.08.31-6.69.57-9.27q2.07-20.79,4.22-41.57c1.33-12.85,2.73-25.69,4.07-38.54.93-8.83,1.9-17.66,2.7-26.5a10,10,0,0,1,3.69-7.3c2.61-2.14,4.67-4.94,8-7,.62,3.37,1.17,6.31,1.72,9.23,1.75.21,1.88-1.24,2.37-2.22a197,197,0,0,1,23.22-36.8,100.29,100.29,0,0,1,14.86-15.06,72.08,72.08,0,0,1,8-5.47,17.19,17.19,0,0,1,5-2c5.16-1.2,8.76.44,10.81,5.31a32.73,32.73,0,0,1,2.16,8.74c.85,7.26.07,14.52-.57,21.76q-1.56,17.79-3.19,35.58c-1.29,14.28-2.6,28.55-3.84,42.83a7.73,7.73,0,0,1-3.18,6.17c-4.2,3.06-8.15,6.47-12.14,9.47-1.75-.78-1.27-1.93-1.19-2.79,1.34-15.08,2.76-30.16,4.11-45.24q1.64-18.39,3.14-36.8c.21-2.61.12-5.24.07-7.87a19.84,19.84,0,0,0-.4-3.6c-1.33-6.48-5.25-8.48-11-5.44a37.38,37.38,0,0,0-6.42,4.52,78.56,78.56,0,0,0-13,14.33,151.14,151.14,0,0,0-19,35.71,47.19,47.19,0,0,0-2.41,12.43q-3,30.74-5.87,61.48c-.36,3.82-.69,7.65-.9,11.47a7.11,7.11,0,0,1-3.54,5.92C1400.12,599.85,1396.58,602.46,1391.66,605.92Z"/><path class="cls-1" d="M136.62,477.22c-.83-19.45-.63-38.27,2.53-57.4a49.11,49.11,0,0,1,18-.25c-.27,2.79-.42,5.27-.78,7.72-6.31,43-1.21,84.84,13.53,125.65,10.33,28.58,24.63,55,42,79.85,1.75,2.51,3.39,5.09,5.12,7.7-2.41,2.84-5.47,3.48-8.55,4.58-6.23-3.37-9.3-10.29-15-14.05-2,.65-1.14,1.9-1.1,2.88.23,5.05.8,10.11.65,15.15a21.88,21.88,0,0,1-4.52,12.57c-5.64,7.42-13.23,10.26-22.36,8.85-6.26-1-11.76-3.83-16.92-7.37a100.62,100.62,0,0,1-22.39-21.69C107.75,616.76,94.46,589.31,88,558.7a103.91,103.91,0,0,1-1.65-33.65,67.48,67.48,0,0,1,6.43-22.68c7.44-14.8,19.4-23.06,35.91-24.64,1.13-.11,2.26-.1,3.38-.17S134.31,477.39,136.62,477.22ZM138.89,499c-14.4-3.45-27.78,2.44-34.64,15-3.59,6.58-5,13.72-5.24,21.12a92.34,92.34,0,0,0,3.27,26.73,172.59,172.59,0,0,0,21.35,48.53c5.54,8.85,11.89,17.12,19.89,24,3.87,3.32,8,6.23,12.93,7.81,9.5,3.05,17.7-1.29,20.25-10.95a29.4,29.4,0,0,0,1-9.19c-.66-10.74-2.49-21.22-7.95-30.78-2.37-4.15-4.46-8.47-6.45-12.82a297.75,297.75,0,0,1-22.79-72.31C140,503.64,139.39,501.22,138.89,499Z"/><path class="cls-1" d="M1687.5,420.79a25.53,25.53,0,0,0-1.88-2.68c-9.73-10.38-21.93-14.72-35.92-14.4-9.56.22-17,4.53-22.45,12.32a47.85,47.85,0,0,0-7,16,110,110,0,0,0-2.67,39.06,51.16,51.16,0,0,0,2.66,11.15,26.81,26.81,0,0,0,19.06,17.87c8.11,2.27,16.33,2.9,24.5.59,3.82-1.09,7.42-3,11.35-4.6a108.62,108.62,0,0,1,9.28,14.31,21.72,21.72,0,0,1-2.75,2.32c-6.56,3.91-13.83,5.57-21.33,6.15a94.87,94.87,0,0,1-29.47-2.28,56.09,56.09,0,0,1-7.48-2.39c-10.54-4.16-17.75-11.61-21.82-22.18a68.88,68.88,0,0,1-4.18-20.68,126.24,126.24,0,0,1,5.53-46.62,58.89,58.89,0,0,1,9.77-18.68c8.24-10.42,19.07-16.06,32.28-16.72,17.76-.89,33.87,4.24,48.52,14.15a40.89,40.89,0,0,1,10.31,9.79,16.17,16.17,0,0,1-2.51,1.72C1697.06,416.83,1692.77,418.59,1687.5,420.79Z"/><path class="cls-1" d="M434.27,433a174.76,174.76,0,0,0,30.57-7.88c9.41-3.31,18.68-7,28.45-10.7-.42,5.63-2.55,10.3-4.05,15.49-1.62.79-3.29,1.77-5.07,2.46A258.75,258.75,0,0,1,435.55,446a34.58,34.58,0,0,1-3.63.55c-2.82.18-4.35,1.81-5.29,4.32-1.28,3.43-2.78,6.78-4,10.24q-8.22,23.52-16.31,47.09a50.45,50.45,0,0,0-1.44,4.93c-1.44,6.15.41,10.48,6,13.48a38.68,38.68,0,0,0,14.74,4.15,105.48,105.48,0,0,0,37.82-2.74c1.84-.49,3.7-.89,5.87-1.4,1.48,3.1,2.88,5.91,4.17,8.77a35.82,35.82,0,0,1,1.18,3.68,26.24,26.24,0,0,1-3.52,1.49c-3.31.84-6.63,1.76-10,2.29A159.37,159.37,0,0,1,405,541.78a64.58,64.58,0,0,1-18-6,48.31,48.31,0,0,1-9.12-6c-5.82-5.09-8-11.54-5.9-19.17.52-1.89,1.13-3.75,1.73-5.61a474,474,0,0,1,18-46.47c1.19-2.67,2.31-5.36,3.68-8.53a30.8,30.8,0,0,0-4.2-1.16c-7-.85-14.09-1.54-21.12-2.42-2.39-.3-4.74-1-7.31-1.52.22-3.4,1.86-5.75,3.72-8.47l5.59,0c8.55,0,17.1,0,25.65,0a8.84,8.84,0,0,0,7.46-3.85c6.12-7.94,12.49-15.69,18.52-23.69a13.06,13.06,0,0,1,9-5.57c4.78-.74,9.46-2.07,14.75-3.28-1,6.28-4.1,11-6.13,16.12S436.75,426.24,434.27,433Z"/><path class="cls-1" d="M1310.65,554c-22.69-.25-44.73-4.63-66.5-12.33a17.5,17.5,0,0,0-1.58,3.2,41.72,41.72,0,0,0-1.36,12c.33,9,4.36,15.87,12.13,20.37a44.54,44.54,0,0,0,25,5.7,43.74,43.74,0,0,0,15.56-3.62c2.25,1,2.38,3,3.19,4.57s1.29,2.9,2.06,4.67a29.28,29.28,0,0,1-3.79,2c-12.61,4.5-25.34,4.3-38.13.85a52.19,52.19,0,0,1-17-7.78c-9.67-7-14.77-16.33-15-28.29a54,54,0,0,1,1.29-13.23c2.87-12.36,7.7-23.81,15.78-33.7s18.28-17,31.07-19.77a49.68,49.68,0,0,1,25.72,1.12c12.77,4,19.73,12.8,20.75,26.11a52.47,52.47,0,0,1-1.2,15,121.52,121.52,0,0,1-6.87,21.29A11.34,11.34,0,0,1,1310.65,554Zm-10.34-13.15a42.61,42.61,0,0,0,4.52-19.77c-.37-9.08-4.55-14.67-13.25-17.37-10.58-3.28-20.33-1.64-29,5.34a48,48,0,0,0-13.1,17.17,20.23,20.23,0,0,0-1,3.23C1260.19,535.1,1289.79,541.56,1300.31,540.8Z"/><path class="cls-1" d="M1035.69,551.1c1.35,4,2.59,7.61,3.78,11.22.3.94.43,1.94.67,3-1,1.09-1.87,2.19-2.89,3.11-10.51,9.42-23,14-36.94,14.68a30.61,30.61,0,0,1-6-.52c-7.23-1.1-12.11-5.25-14.77-12A40.52,40.52,0,0,1,977,554a102.51,102.51,0,0,1,3.52-22.69A194.29,194.29,0,0,1,1009.14,469a122.67,122.67,0,0,1,23.7-25.77,71.15,71.15,0,0,1,20.35-11.77c8.15-2.93,16.47-4,25-1.63,7.91,2.21,13.62,6.86,16,15a8.9,8.9,0,0,1,.28,1.79,8.15,8.15,0,0,1-.08,1.2c-3,2.78-13,9.48-17.66,11.76-.57-1.5-1.09-3-1.7-4.45-2.14-5.12-6.09-7.88-11.51-8.63a28.45,28.45,0,0,0-15.39,2.15,50.31,50.31,0,0,0-14,9.39,85.15,85.15,0,0,0-12.61,14.66,167.86,167.86,0,0,0-25.88,59.59c-1.33,6.11-2.28,12.34-.93,18.62A29.46,29.46,0,0,0,995.7,555a11.85,11.85,0,0,0,10.95,8.18,28.85,28.85,0,0,0,16.37-3.41c3.16-1.73,6-4,9-6C1033.19,552.94,1034.28,552.11,1035.69,551.1Z"/><path class="cls-1" d="M909.94,469.25a105.9,105.9,0,0,1-1.36,22.2c-8.34-1.24-13.6,3.38-17.86,9.78a35.55,35.55,0,0,0-6.05,16.92,32.26,32.26,0,0,0,3.54,18.16c3.56,6.7,8.11,8.84,15.52,7,2.93-.71,5.76-1.84,8.64-2.76,2.3-.73,4.58-1.56,6.93-2.13,7.67-1.86,13.94.54,18.82,6.59a65.38,65.38,0,0,1,10,17.22,77.18,77.18,0,0,1,5.85,28.28,41.16,41.16,0,0,1-3.11,16.54A29.35,29.35,0,0,1,937.2,622,24.9,24.9,0,0,1,919,623.89c-1.71-.43-3-1.27-3.25-3.13-.69-4.56-1.36-9.12-2.11-14.18,1.88.31,3.21.47,4.51.75,12.07,2.67,21.4-5.79,23.56-15.58,1.59-7.19.45-14.09-2.47-20.68a44,44,0,0,0-5-8.22,10.78,10.78,0,0,0-10.72-4.21,71.72,71.72,0,0,0-8.22,2c-3.32.86-6.58,2-9.93,2.64-7.77,1.56-14.25-.77-19.63-6.65a42.49,42.49,0,0,1-9.59-18c-6.08-23-.91-43.53,14.57-61.46a26.88,26.88,0,0,1,10.15-7.49A11.94,11.94,0,0,1,909.94,469.25Z"/><path class="cls-1" d="M1158.43,490c-1,1.81-2,3.76-3.06,5.64-10.8,18.51-20.9,37.36-29.34,57.08A344.51,344.51,0,0,0,1111.79,592c-.4,1.36-.82,2.71-1.28,4-.12.34-.49.6-.82,1a6,6,0,0,1-1.65-.37c-4.77-2.62-9.51-5.28-14-7.79-1-2.19-.13-3.88.36-5.6a357.06,357.06,0,0,1,22.08-57c7.38-15.29,15.67-30.08,24.42-44.62.71-1.17,1.59-2.24,2.35-3.3A65.27,65.27,0,0,1,1158.43,490Z"/><path class="cls-1" d="M1182.41,453.11c-.07,4.8-1.92,9.11-6.72,11.59-4.14,2.13-9.82.75-14-3.07-5.61-5.17-6.75-13.28-2.72-19.24,3.89-5.74,10.78-7.11,16.42-3.12C1180,442.52,1182.38,447,1182.41,453.11Z"/><path d="M319.84,561.13c2.15,4.23,5.07,13,5.52,16.53-1.42,1.8-3.41,1.61-5.32,1.34a19.78,19.78,0,0,1-8.21-3.32,37.26,37.26,0,0,1-7.89-7.2c-1.61-2-3.06-4-4.62-6a15.35,15.35,0,0,0-1.45-1.46c-.39.45-.66.63-.73.86a15,15,0,0,0-.29,1.76c-2.16,14.74-11.27,23.23-25,27.17s-26,.42-36.27-9.27c-7.77-7.29-11.91-16.58-13.69-27-3.69-21.63,9.52-48.6,36.21-56.72l5.38-1.63c-.06-.6,0-.94-.12-1.15-3.59-5.82-7.1-11.7-10.84-17.42a30.42,30.42,0,0,0-7.46-7.64,20.51,20.51,0,0,0-19-3.45c-11.67,3.48-18.72,11.11-20.57,23.29-.13.88-.22,1.77-.33,2.66s-.21,1.71-.3,2.47a89.06,89.06,0,0,1-15.59.66,10,10,0,0,1-.19-2c.76-7.18,2.54-14.09,6.26-20.33,7.73-13,19.21-20,34.26-21,7-.48,13.54,1.53,19.56,5.16a45.72,45.72,0,0,1,12.57,11.26,106.45,106.45,0,0,1,6.82,9.93,543,543,0,0,1,30.19,57.73c2,4.47,4.2,8.89,6.62,13.14A50.64,50.64,0,0,0,310.9,557a10,10,0,0,0,7.34,3.78A8.15,8.15,0,0,1,319.84,561.13ZM272.29,511c-11.65.57-23.42,7.74-29.39,17.65-8.22,13.65-3.79,28.13,5.23,36.7a20.68,20.68,0,0,0,16.7,6c8.82-.83,15.29-5.33,19.49-13.1a34.74,34.74,0,0,0,3.47-11.93,11.43,11.43,0,0,0-1.13-6.91c-4.36-8.63-8.62-17.3-12.93-26C273.33,512.7,272.84,512,272.29,511Z"/><path class="cls-1" d="M350.15,535.47c2.15,4.23,5.07,13,5.51,16.53-1.41,1.8-3.4,1.61-5.31,1.34a19.78,19.78,0,0,1-8.21-3.32,37,37,0,0,1-7.89-7.2c-1.61-2-3.06-4-4.62-6a15.35,15.35,0,0,0-1.45-1.46c-.39.45-.67.63-.73.87a17.29,17.29,0,0,0-.3,1.75c-2.15,14.74-11.26,23.24-25,27.17s-26,.42-36.28-9.27c-7.76-7.29-11.9-16.58-13.68-27-3.69-21.63,9.52-48.6,36.2-56.71l5.39-1.64c-.06-.6,0-.93-.12-1.15-3.59-5.82-7.1-11.7-10.84-17.42a30.42,30.42,0,0,0-7.46-7.64,20.55,20.55,0,0,0-19-3.45c-11.66,3.48-18.72,11.11-20.56,23.29-.13.89-.22,1.77-.33,2.66s-.21,1.71-.31,2.47a88.91,88.91,0,0,1-15.58.66,9.27,9.27,0,0,1-.19-2c.76-7.18,2.54-14.09,6.26-20.33,7.73-13,19.21-20,34.26-21.05,7-.48,13.54,1.54,19.55,5.17A45.45,45.45,0,0,1,292,443a105,105,0,0,1,6.82,9.92A544.85,544.85,0,0,1,329,510.64c2,4.47,4.2,8.89,6.62,13.15a50.55,50.55,0,0,0,5.55,7.51,10,10,0,0,0,7.34,3.78A8.15,8.15,0,0,1,350.15,535.47Zm-47.55-50.1c-11.65.57-23.42,7.74-29.39,17.65-8.22,13.65-3.79,28.13,5.23,36.7a20.67,20.67,0,0,0,16.69,6c8.83-.83,15.3-5.33,19.5-13.1a34.51,34.51,0,0,0,3.46-11.93,11.31,11.31,0,0,0-1.12-6.9c-4.36-8.63-8.62-17.31-12.94-26C303.64,487.05,303.15,486.31,302.6,485.37Z"/><path d="M1816.63,527.15c-29-.35-57.25-6.57-85.1-17.49a25.2,25.2,0,0,0-2,4.53,65.16,65.16,0,0,0-1.73,17c.42,12.78,5.58,22.51,15.51,28.89s20.69,8.71,32,8.08a51.41,51.41,0,0,0,19.91-5.13c2.89,1.44,3,4.3,4.08,6.49.94,2,1.65,4.1,2.64,6.62a38,38,0,0,1-4.85,2.89c-16.14,6.38-32.43,6.1-48.8,1.2a63.53,63.53,0,0,1-21.72-11c-12.38-9.86-18.91-23.16-19.19-40.13a83.84,83.84,0,0,1,1.65-18.77c3.67-17.53,9.85-33.77,20.2-47.8s23.39-24.14,39.75-28a57.73,57.73,0,0,1,32.92,1.58c16.34,5.65,25.25,18.16,26.55,37.05a81.6,81.6,0,0,1-1.54,21.34,184.9,184.9,0,0,1-8.78,30.21A17.56,17.56,0,0,1,1816.63,527.15ZM1803.4,508.5a66.11,66.11,0,0,0,5.78-28.06c-.48-12.87-5.82-20.8-17-24.63-13.54-4.65-26-2.32-37.17,7.57-7.4,6.57-12.69,15-16.75,24.36a31.21,31.21,0,0,0-1.25,4.59C1752.05,500.41,1789.93,509.58,1803.4,508.5Z"/><path class="cls-1" d="M1887.08,572.47c-29-.35-57.25-6.57-85.1-17.49a25.2,25.2,0,0,0-2,4.53,65.59,65.59,0,0,0-1.73,17c.42,12.78,5.58,22.5,15.51,28.89s20.69,8.71,32,8.08a51.41,51.41,0,0,0,19.91-5.13c2.89,1.44,3,4.3,4.08,6.49.94,2,1.65,4.1,2.64,6.62a36.1,36.1,0,0,1-4.85,2.88c-16.14,6.39-32.43,6.11-48.8,1.21a63.47,63.47,0,0,1-21.72-11c-12.38-9.85-18.91-23.16-19.19-40.12a84.38,84.38,0,0,1,1.65-18.77c3.68-17.53,9.85-33.77,20.2-47.81s23.39-24.13,39.75-28a57.73,57.73,0,0,1,32.92,1.58c16.34,5.65,25.25,18.16,26.55,37a82,82,0,0,1-1.53,21.34,185.81,185.81,0,0,1-8.79,30.2A17.57,17.57,0,0,1,1887.08,572.47Zm-13.23-18.66a66,66,0,0,0,5.78-28c-.48-12.88-5.82-20.8-17-24.63-13.54-4.66-26-2.32-37.17,7.57-7.4,6.57-12.69,15-16.75,24.36a31.42,31.42,0,0,0-1.25,4.58C1822.5,545.73,1860.38,554.89,1873.85,553.81Z"/></svg>