<?xml version="1.0" encoding="utf-8"?>
<!-- Generator: Adobe Illustrator 23.0.1, SVG Export Plug-In . SVG Version: 6.00 Build 0)  -->
<svg version="1.1" id="Layer_1" xmlns="http://www.w3.org/2000/svg" xmlns:xlink="http://www.w3.org/1999/xlink" x="0px" y="0px"
	 viewBox="0 0 2116.8 2140.8" style="enable-background:new 0 0 2116.8 2140.8;" xml:space="preserve">
<polyline points="177.9,1312.8 246.5,1312.8 246.5,1573.9 177.9,1573.9 "/>
<polyline points="177.9,1067.5 246.5,1067.5 246.5,1328.6 177.9,1328.6 "/>
<polyline points="177.9,849.5 246.5,849.5 246.5,1110.6 177.9,1110.6 "/>
<path d="M893.3,187.5"/>
<path d="M774.8,188.6c0,70.4-57.1,127.5-127.5,127.5s-127.5-57.1-127.5-127.5S576.9,61.1,647.3,61.1S774.8,118.2,774.8,188.6z
	 M647.3,129.7c-32.5,0-58.9,26.4-58.9,58.9s26.4,58.9,58.9,58.9c32.5,0,58.9-26.4,58.9-58.9S679.9,129.7,647.3,129.7z"/>
<path d="M1789.4,188.6c0,70.4-57.1,127.5-127.5,127.5c-70.4,0-127.5-57.1-127.5-127.5s57.1-127.5,127.5-127.5
	C1732.4,61.1,1789.4,118.2,1789.4,188.6z M1661.9,129.7c-32.5,0-58.9,26.4-58.9,58.9s26.4,58.9,58.9,58.9
	c32.5,0,58.9-26.4,58.9-58.9S1694.5,129.7,1661.9,129.7z"/>
<path d="M1638.5,1297c0,70.4-57.1,127.5-127.5,127.5c-70.4,0-127.5-57.1-127.5-127.5c0-70.4,57.1-127.5,127.5-127.5
	C1581.5,1169.5,1638.5,1226.6,1638.5,1297z M1511,1238.1c-32.5,0-58.9,26.4-58.9,58.9s26.4,58.9,58.9,58.9s58.9-26.4,58.9-58.9
	S1543.6,1238.1,1511,1238.1z"/>
<path d="M1072.8,1241.7c0,70.4-57.1,127.5-127.5,127.5s-127.5-57.1-127.5-127.5c0-70.4,57.1-127.5,127.5-127.5
	S1072.8,1171.2,1072.8,1241.7z M945.3,1182.7c-32.5,0-58.9,26.4-58.9,58.9c0,32.5,26.4,58.9,58.9,58.9s58.9-26.4,58.9-58.9
	C1004.2,1209.1,977.8,1182.7,945.3,1182.7z"/>
<path d="M705.9,1184.6c0,70.4-57.1,127.5-127.5,127.5s-127.5-57.1-127.5-127.5c0-70.4,57.1-127.5,127.5-127.5
	S705.9,1114.2,705.9,1184.6z M578.4,1125.7c-32.5,0-58.9,26.4-58.9,58.9c0,32.5,26.4,58.9,58.9,58.9s58.9-26.4,58.9-58.9
	C637.3,1152.1,610.9,1125.7,578.4,1125.7z"/>
<path d="M1942.4,1297c0,70.4-57.1,127.5-127.5,127.5c-70.4,0-127.5-57.1-127.5-127.5c0-70.4,57.1-127.5,127.5-127.5
	C1885.3,1169.5,1942.4,1226.6,1942.4,1297z M1814.9,1238.1c-32.5,0-58.9,26.4-58.9,58.9s26.4,58.9,58.9,58.9
	c32.5,0,58.9-26.4,58.9-58.9S1847.4,1238.1,1814.9,1238.1z"/>
<path d="M339.5,374.7c0,70.4-57.1,127.5-127.5,127.5S84.5,445.1,84.5,374.7S141.6,247.2,212,247.2S339.5,304.3,339.5,374.7z
	 M212,315.8c-32.5,0-58.9,26.4-58.9,58.9s26.4,58.9,58.9,58.9s58.9-26.4,58.9-58.9S244.6,315.8,212,315.8z"/>
<path d="M1693.5,954.5c0,70.5-57.1,127.7-127.5,127.7c-70.4,0-127.5-57.2-127.5-127.7s57.1-127.7,127.5-127.7
	C1636.4,826.8,1693.5,883.9,1693.5,954.5z M1566,895.5c-32.5,0-58.9,26.4-58.9,59s26.4,59,58.9,59c32.5,0,58.9-26.4,58.9-59
	S1598.5,895.5,1566,895.5z"/>
<path d="M1553.9,1972c0,70.4-57.1,127.5-127.5,127.5c-70.4,0-127.5-57.1-127.5-127.5s57.1-127.5,127.5-127.5
	C1496.8,1844.5,1553.9,1901.5,1553.9,1972z M1426.4,1913c-32.5,0-58.9,26.4-58.9,58.9s26.4,58.9,58.9,58.9s58.9-26.4,58.9-58.9
	S1459,1913,1426.4,1913z"/>
<polyline points="647.3,316.1 908.8,316.1 908.8,247.6 647.7,247.6 647.7,316.1 "/>
<polyline points="898,316.1 1159.5,316.1 1159.5,247.6 898.3,247.6 898.3,316.1 "/>
<polyline points="1155.5,316.1 1417,316.1 1417,247.6 1155.8,247.6 1155.8,316.1 "/>
<polyline points="1404.6,316.1 1666.1,316.1 1666.1,247.6 1404.9,247.6 1404.9,316.1 "/>
<path d="M1006.1,374.7"/>
<path d="M571.2,690"/>
<polyline points="177.7,740.5 177.7,1002 246.3,1002 246.3,740.8 177.7,740.8 "/>
<polyline points="364.9,740.5 364.9,1002 433.5,1002 433.5,740.8 364.9,740.8 "/>
<polyline points="364.9,845.6 364.9,1107.1 433.5,1107.1 433.5,846 364.9,846 "/>
<path d="M246.5,743.9h0.1c2-30.8,27.6-55.1,58.9-55.1c31.3,0,57,24.3,59,55.1h0.1v116.9c40.9-21.3,68.8-63.9,68.8-113.1
	c0-70.4-57.2-127.5-127.9-127.5c-70.6,0-127.9,57.1-127.9,127.5c0,49.2,27.9,91.8,68.8,113.1V743.9z"/>
<path d="M580,864.9"/>
<path d="M693.1,914.2"/>
<polyline points="1336.3,894.5 1597.8,894.5 1597.8,826 1336.6,826 1336.6,894.5 "/>
<polyline points="1336.3,707.4 1597.8,707.4 1597.8,638.8 1336.6,638.8 1336.6,707.4 "/>
<path d="M1339.7,826.2v-0.1c-30.8-2-55.1-27.6-55.1-58.9c0-31.3,24.3-57,55.1-59V708h116.9c-21.3-40.9-63.9-68.8-113.1-68.8
	c-70.4,0-127.5,57.2-127.5,127.9c0,70.6,57.1,127.9,127.5,127.9c49.2,0,91.8-27.9,113.1-68.8H1339.7z"/>
<g>
	<polyline points="1827.2,826.4 1565.8,826.4 1565.8,895 1826.9,895 1826.9,826.4 	"/>
	<polyline points="1827.2,1013.6 1565.8,1013.6 1565.8,1082.1 1826.9,1082.1 1826.9,1013.6 	"/>
	<path d="M1823.9,895.2v0.1c30.8,2,55.1,27.6,55.1,58.9c0,31.3-24.3,57-55.1,59v0.1H1707c21.3,40.9,63.9,68.8,113.1,68.8
		c70.4,0,127.5-57.2,127.5-127.9c0-70.6-57.1-127.9-127.5-127.9c-49.2,0-91.8,27.9-113.1,68.8H1823.9z"/>
</g>
<g>
	<polyline points="1956.1,1537.8 1814.6,1537.8 1814.6,1606.4 1955.8,1606.4 1955.8,1537.8 	"/>
	<polyline points="1956.1,1725 1694.6,1725 1694.6,1793.5 1955.8,1793.5 1955.8,1725 	"/>
	<path d="M1952.7,1606.6v0.1c30.8,2,55.1,27.6,55.1,58.9c0,31.3-24.3,57-55.1,58.9v0.1h-116.9c21.3,40.9,63.9,68.8,113.1,68.8
		c70.4,0,127.5-57.2,127.5-127.9c0-70.6-57.1-127.9-127.5-127.9c-49.2,0-91.8,27.9-113.1,68.8H1952.7z"/>
</g>
<polyline points="1597.9,1793.2 1859.3,1793.2 1859.3,1724.6 1598.2,1724.6 1598.2,1793.2 "/>
<polyline points="1543.3,1666 1543.3,1404.5 1474.7,1404.5 1474.7,1665.7 1543.3,1665.7 "/>
<polyline points="1367.8,1972.7 1367.8,1711.2 1299.2,1711.2 1299.2,1972.4 1367.8,1972.4 "/>
<polyline points="620.5,1714.7 620.5,1453.2 551.9,1453.2 551.9,1714.3 620.5,1714.3 "/>
<path d="M364.7,1569.1h-0.1c-2,30.8-27.6,55.1-58.9,55.1c-31.3,0-57-24.3-59-55.1h-0.1v-116.9c-40.9,21.3-68.8,63.9-68.8,113.1
	c0,70.4,57.2,127.5,127.9,127.5c70.6,0,127.9-57.1,127.9-127.5c0-49.2-27.9-91.8-68.8-113.1V1569.1z"/>
<path d="M807.3,1714.5v-0.2h0.1c2-30.8,27.6-55.1,59-55.1c31.3,0,57,24.3,58.9,55.1h0.1v0.2h68.7c-1.9-68.7-58.4-123.9-127.8-123.9
	c-69.4,0-125.9,55.1-127.8,123.9H807.3z"/>
<path d="M620.3,1713.8v0.2h0.1c2,30.8,27.6,55.1,59,55.1c31.3,0,57-24.3,58.9-55.1h0.1v-0.2h68.7c-1.9,68.7-58.4,123.9-127.8,123.9
	c-69.4,0-125.9-55.1-127.8-123.9H620.3z"/>
<path d="M1180.9,1714.5v-0.2h0.1c2-30.8,27.6-55.1,59-55.1c31.3,0,57,24.3,58.9,55.1h0.1v0.2h68.7c-1.9-68.7-58.4-123.9-127.8-123.9
	c-69.4,0-125.9,55.1-127.8,123.9H1180.9z"/>
<path d="M993.9,1713.8v0.2h0.1c2,30.8,27.6,55.1,59,55.1c31.3,0,57-24.3,58.9-55.1h0.1v-0.2h68.7c-1.9,68.7-58.4,123.9-127.8,123.9
	c-69.4,0-125.9-55.1-127.8-123.9H993.9z"/>
<path d="M551.8,1453.2h-0.1c-2-30.8-27.6-55.1-58.9-55.1c-31.3,0-57,24.3-59,55.1h-0.1v116.9c-40.9-21.3-68.8-63.9-68.8-113.1
	c0-70.4,57.2-127.5,127.9-127.5c70.6,0,127.9,57.1,127.9,127.5c0,49.2-27.9,91.8-68.8,113.1V1453.2z"/>
<polyline points="901.6,520.5 1163.1,520.5 1163.1,451.9 882.5,451.9 882.5,520.5 "/>
<polyline points="1032.4,520.5 1293.9,520.5 1293.9,451.9 1032.7,451.9 1032.7,520.5 "/>
<polyline points="1286.2,520.5 1547.7,520.5 1547.7,451.9 1286.6,451.9 1286.6,520.5 "/>
<g>
	<polyline points="1796.8,451.7 1535.4,451.7 1535.4,520.3 1796.5,520.3 1796.5,451.7 	"/>
	<polyline points="1796.8,638.9 1535.4,638.9 1535.4,707.5 1796.5,707.5 1796.5,638.9 	"/>
	<path d="M1793.5,520.5v0.1c30.8,2,55.1,27.6,55.1,58.9c0,31.3-24.3,57-55.1,59v0.1h-116.9c21.3,40.9,63.9,68.8,113.1,68.8
		c70.4,0,127.5-57.2,127.5-127.9c0-70.6-57.1-127.9-127.5-127.9c-49.2,0-91.8,27.9-113.1,68.8H1793.5z"/>
</g>
<polyline points="767.3,1081.9 1028.8,1081.9 1028.8,1013.4 767.6,1013.4 767.6,1081.9 "/>
<polyline points="767.3,894.8 1028.8,894.8 1028.8,826.2 767.6,826.2 767.6,894.8 "/>
<path d="M770.7,1013.2v-0.1c-30.8-2-55.1-27.6-55.1-58.9c0-31.3,24.3-57,55.1-59V895h116.9c-21.3-40.9-63.9-68.8-113.1-68.8
	c-70.4,0-127.5,57.2-127.5,127.9c0,70.6,57.1,127.9,127.5,127.9c49.2,0,91.8-27.9,113.1-68.8H770.7z"/>
<g>
	<polyline points="1266.2,1013.4 1004.7,1013.4 1004.7,1081.9 1265.9,1081.9 1265.9,1013.4 	"/>
	<polyline points="1266.2,1200.5 1004.7,1200.5 1004.7,1269.1 1265.9,1269.1 1265.9,1200.5 	"/>
	<path d="M1262.8,1082.1v0.1c30.8,2,55.1,27.6,55.1,58.9c0,31.3-24.3,57-55.1,58.9v0.1h-116.9c21.3,40.9,63.9,68.8,113.1,68.8
		c70.4,0,127.5-57.2,127.5-127.9c0-70.6-57.1-127.9-127.5-127.9c-49.2,0-91.8,27.9-113.1,68.8H1262.8z"/>
</g>
<g>
	<polyline points="1065.3,639.1 803.9,639.1 803.9,707.6 1065,707.6 1065,639.1 	"/>
	<polyline points="1065.3,826.2 803.9,826.2 803.9,894.8 1065,894.8 1065,826.2 	"/>
	<path d="M1062,707.8v0.1c30.8,2,55.1,27.6,55.1,58.9c0,31.3-24.3,57-55.1,59v0.1H945.1c21.3,40.9,63.9,68.8,113.1,68.8
		c70.4,0,127.5-57.2,127.5-127.9c0-70.6-57.1-127.9-127.5-127.9c-49.2,0-91.8,27.9-113.1,68.8H1062z"/>
</g>
<g>
	<polyline points="640.1,451.9 901.6,451.9 901.6,520.5 640.5,520.5 640.5,451.9 	"/>
	<polyline points="640.1,639.1 901.6,639.1 901.6,707.6 640.5,707.6 640.5,639.1 	"/>
	<path d="M643.5,520.7v0.1c-30.8,2-55.1,27.6-55.1,58.9c0,31.3,24.3,57,55.1,59v0.1h116.9c-21.3,40.9-63.9,68.8-113.1,68.8
		c-70.4,0-127.5-57.2-127.5-127.9c0-70.6,57.1-127.9,127.5-127.9c49.2,0,91.8,27.9,113.1,68.8H643.5z"/>
</g>
<path d="M1598.3,1724.8v-0.1c-30.8-2-55.1-27.6-55.1-58.9h-68.6c0,69.3,55,125.8,123.7,127.8V1724.8z"/>
<path d="M488.5,1163.4v-0.1c-30.8-2-55.1-27.6-55.1-58.9h-68.6c0,69.3,55,125.8,123.7,127.8V1163.4z"/>
<path d="M1815.1,1537.7v-0.1c-30.8-2-55.1-27.6-55.1-58.9h-68.6c0,69.3,55,125.8,123.7,127.8V1537.7z"/>
<path d="M1759.8,1479.6h0.1c2-30.8,27.6-55.1,58.9-55.1v-68.6c-69.3,0-125.8,55-127.8,123.7H1759.8z"/>
</svg>
