<svg id="Layer_1" data-name="Layer 1" xmlns="http://www.w3.org/2000/svg" viewBox="0 0 1991.88 1774.55"><title>lines2</title><polyline points="93.38 1252.35 161.96 1252.35 161.96 1513.51 93.38 1513.51"/><polyline points="93.38 1044.04 161.96 1044.04 161.96 1305.2 93.38 1305.2"/><polyline points="93.38 826.06 161.96 826.06 161.96 1087.22 93.38 1087.22"/><path d="M893.34,153.72" transform="translate(-84.52 -26.59)"/><path d="M774.85,154.82a127.5,127.5,0,1,1-127.5-127.5A127.5,127.5,0,0,1,774.85,154.82ZM647.35,95.9a58.92,58.92,0,1,0,58.92,58.92A58.92,58.92,0,0,0,647.35,95.9Z" transform="translate(-84.52 -26.59)"/><path d="M1789.44,154.82a127.5,127.5,0,1,1-127.5-127.5A127.5,127.5,0,0,1,1789.44,154.82ZM1661.94,95.9a58.92,58.92,0,1,0,58.92,58.92A58.92,58.92,0,0,0,1661.94,95.9Z" transform="translate(-84.52 -26.59)"/><path d="M1638.53,1263.18a127.5,127.5,0,1,1-127.5-127.5A127.5,127.5,0,0,1,1638.53,1263.18ZM1511,1204.26a58.92,58.92,0,1,0,58.92,58.92A58.92,58.92,0,0,0,1511,1204.26Z" transform="translate(-84.52 -26.59)"/><path d="M1942.41,1263.18a127.5,127.5,0,1,1-127.5-127.5A127.5,127.5,0,0,1,1942.41,1263.18Zm-127.5-58.92a58.92,58.92,0,1,0,58.92,58.92A58.92,58.92,0,0,0,1814.91,1204.26Z" transform="translate(-84.52 -26.59)"/><path d="M339.52,340.87A127.5,127.5,0,1,1,212,213.37,127.5,127.5,0,0,1,339.52,340.87ZM212,282a58.92,58.92,0,1,0,58.92,58.92A58.92,58.92,0,0,0,212,282Z" transform="translate(-84.52 -26.59)"/><polyline points="562.83 255.73 824.32 255.73 824.32 187.15 563.16 187.15 563.16 255.73"/><polyline points="813.49 255.73 1074.98 255.73 1074.98 187.15 813.83 187.15 813.83 255.73"/><polyline points="1070.97 255.73 1332.46 255.73 1332.46 187.15 1071.31 187.15 1071.31 255.73"/><polyline points="1320.09 255.73 1581.58 255.73 1581.58 187.15 1320.42 187.15 1320.42 255.73"/><polyline points="675.76 69 562.83 69.31 824.32 68.58 824.32 0 563.16 0 563.16 68.58"/><path d="M1006.1,340.87" transform="translate(-84.52 -26.59)"/><polyline points="404.02 1208.69 404.02 1140.11 665.17 1140.11 665.17 1208.69"/><polyline points="664.57 1208.69 664.57 1140.11 925.72 1140.11 925.72 1208.69"/><path d="M571.17,656.2" transform="translate(-84.52 -26.59)"/><polyline points="93.21 717.08 93.21 978.57 161.79 978.57 161.79 717.41 93.21 717.41"/><polyline points="280.36 717.08 280.36 978.57 348.94 978.57 348.94 717.41 280.36 717.41"/><polyline points="280.36 822.21 280.36 1083.7 348.94 1083.7 348.94 822.54 280.36 822.54"/><path d="M246.51,747.05h.14a59.09,59.09,0,0,1,117.9,0h.13V863.94a127.39,127.39,0,0,0,68.78-113.06c0-70.41-57.25-127.49-127.86-127.49S177.73,680.47,177.73,750.88a127.39,127.39,0,0,0,68.78,113.06Z" transform="translate(-84.52 -26.59)"/><path d="M580,831.1" transform="translate(-84.52 -26.59)"/><path d="M693.08,880.36" transform="translate(-84.52 -26.59)"/><polyline points="1251.79 834.13 1513.28 834.13 1513.28 765.55 1252.13 765.55 1252.13 834.13"/><polyline points="1251.79 646.98 1513.28 646.98 1513.28 578.4 1252.13 578.4 1252.13 646.98"/><path d="M1339.7,792.39v-.14a59.09,59.09,0,0,1,0-117.9v-.13h116.89a127.41,127.41,0,0,0-113.06-68.78c-70.41,0-127.5,57.25-127.5,127.86s57.09,127.87,127.5,127.87a127.41,127.41,0,0,0,113.06-68.78Z" transform="translate(-84.52 -26.59)"/><polyline points="1742.72 766 1481.23 766 1481.23 834.58 1742.38 834.58 1742.38 766"/><polyline points="1742.72 953.15 1481.23 953.15 1481.23 1021.73 1742.38 1021.73 1742.38 953.15"/><path d="M1823.85,861.37v.13a59.09,59.09,0,0,1,0,117.9v.14H1707A127.41,127.41,0,0,0,1820,1048.32c70.42,0,127.5-57.25,127.5-127.87S1890.44,792.59,1820,792.59A127.41,127.41,0,0,0,1707,861.37Z" transform="translate(-84.52 -26.59)"/><polyline points="1871.6 1478.39 1730.11 1478.39 1730.11 1546.97 1871.26 1546.97 1871.26 1478.39"/><polyline points="1871.6 1665.54 1610.11 1665.54 1610.11 1734.12 1871.26 1734.12 1871.26 1665.54"/><path d="M1952.73,1573.76v.14a59.09,59.09,0,0,1,0,117.9v.13H1835.84a127.41,127.41,0,0,0,113.06,68.78c70.42,0,127.5-57.25,127.5-127.86S2019.32,1505,1948.9,1505a127.41,127.41,0,0,0-113.06,68.78Z" transform="translate(-84.52 -26.59)"/><polyline points="1097.17 1654.27 1097.17 1392.78 1028.59 1392.78 1028.59 1653.93 1097.17 1653.93"/><polyline points="1512.82 1734.12 1774.31 1734.12 1774.31 1665.54 1513.15 1665.54 1513.15 1734.12"/><polyline points="1458.05 1607.26 1458.05 1345.77 1389.47 1345.77 1389.47 1606.92 1458.05 1606.92"/><polyline points="910.02 1654.27 910.02 1392.78 841.43 1392.78 841.43 1653.93 910.02 1653.93"/><path d="M1112.91,1677.47h-.14a59.09,59.09,0,0,1-117.9,0h-.13V1560.58A127.41,127.41,0,0,0,926,1673.64c0,70.42,57.24,127.5,127.86,127.5s127.87-57.08,127.87-127.5a127.41,127.41,0,0,0-68.78-113.06Z" transform="translate(-84.52 -26.59)"/><path d="M739.1,1536.26H739a59.09,59.09,0,0,1-117.9,0h-.14V1419.37a127.43,127.43,0,0,0-68.78,113.06c0,70.42,57.25,127.5,127.87,127.5s127.86-57.08,127.86-127.5a127.42,127.42,0,0,0-68.77-113.06Z" transform="translate(-84.52 -26.59)"/><path d="M364.68,1535.26h-.13a59.09,59.09,0,0,1-117.9,0h-.14V1418.37a127.41,127.41,0,0,0-68.78,113.06c0,70.42,57.25,127.5,127.87,127.5s127.86-57.08,127.86-127.5a127.41,127.41,0,0,0-68.78-113.06Z" transform="translate(-84.52 -26.59)"/><path d="M926,1419.37h-.14a59.09,59.09,0,0,0-117.9,0h-.14v116.89A127.41,127.41,0,0,1,739,1423.2c0-70.41,57.25-127.5,127.87-127.5s127.87,57.09,127.87,127.5A127.41,127.41,0,0,1,926,1536.26Z" transform="translate(-84.52 -26.59)"/><path d="M551.77,1419.37h-.14a59.09,59.09,0,0,0-117.9,0h-.14v116.89a127.39,127.39,0,0,1-68.78-113.06c0-70.41,57.25-127.5,127.87-127.5s127.86,57.09,127.86,127.5a127.4,127.4,0,0,1-68.77,113.06Z" transform="translate(-84.52 -26.59)"/><polyline points="817.1 460.08 1078.59 460.08 1078.59 391.5 817.43 391.5 817.43 460.08"/><polyline points="947.84 460.08 1209.33 460.08 1209.33 391.5 948.18 391.5 948.18 460.08"/><polyline points="1201.71 460.08 1463.21 460.08 1463.21 391.5 1202.05 391.5 1202.05 460.08"/><polyline points="1712.32 391.31 1450.83 391.31 1450.83 459.89 1711.99 459.89 1711.99 391.31"/><polyline points="1712.32 578.46 1450.83 578.46 1450.83 647.04 1711.99 647.04 1711.99 578.46"/><path d="M1793.46,486.68v.13a59.09,59.09,0,0,1,0,117.9v.14H1676.57a127.39,127.39,0,0,0,113.06,68.78c70.41,0,127.5-57.25,127.5-127.87S1860,417.9,1789.63,417.9a127.39,127.39,0,0,0-113.06,68.78Z" transform="translate(-84.52 -26.59)"/><polyline points="682.74 1021.53 944.23 1021.53 944.23 952.96 683.08 952.96 683.08 1021.53"/><polyline points="682.74 834.38 944.23 834.38 944.23 765.8 683.08 765.8 683.08 834.38"/><path d="M770.65,979.35v-.14a59.09,59.09,0,0,1,0-117.9v-.14h116.9a127.43,127.43,0,0,0-113.06-68.78c-70.42,0-127.5,57.25-127.5,127.87s57.08,127.87,127.5,127.87a127.43,127.43,0,0,0,113.06-68.78Z" transform="translate(-84.52 -26.59)"/><polyline points="1181.67 952.96 920.18 952.96 920.18 1021.53 1181.34 1021.53 1181.34 952.96"/><polyline points="1181.67 1140.11 920.18 1140.11 920.18 1208.69 1181.34 1208.69 1181.34 1140.11"/><path d="M1262.81,1048.32v.14a59.09,59.09,0,0,1,0,117.9v.14H1145.92A127.41,127.41,0,0,0,1259,1235.28c70.41,0,127.5-57.25,127.5-127.87S1329.39,979.54,1259,979.54a127.41,127.41,0,0,0-113.06,68.78Z" transform="translate(-84.52 -26.59)"/><polyline points="980.82 578.65 719.33 578.65 719.33 647.23 980.48 647.23 980.48 578.65"/><polyline points="980.82 765.8 719.33 765.8 719.33 834.38 980.48 834.38 980.48 765.8"/><path d="M1062,674v.14a59.09,59.09,0,0,1,0,117.9v.14H945.06A127.42,127.42,0,0,0,1058.12,861c70.42,0,127.5-57.24,127.5-127.86s-57.08-127.87-127.5-127.87A127.43,127.43,0,0,0,945.06,674Z" transform="translate(-84.52 -26.59)"/><polyline points="555.61 391.5 817.1 391.5 817.1 460.08 555.94 460.08 555.94 391.5"/><polyline points="555.61 578.65 817.1 578.65 817.1 647.23 555.94 647.23 555.94 578.65"/><path d="M643.52,486.87V487a59.09,59.09,0,0,0,0,117.9v.14H760.41a127.42,127.42,0,0,1-113.06,68.77c-70.42,0-127.5-57.24-127.5-127.86s57.08-127.87,127.5-127.87a127.43,127.43,0,0,1,113.06,68.78Z" transform="translate(-84.52 -26.59)"/><path d="M1598.34,1691.93v-.14a59,59,0,0,1-55.09-58.94h-68.58c0,69.33,55,125.76,123.67,127.8Z" transform="translate(-84.52 -26.59)"/><path d="M488.54,1166.56v-.14a59,59,0,0,1-55.09-59H364.87c0,69.33,55,125.77,123.67,127.81Z" transform="translate(-84.52 -26.59)"/><path d="M1815.08,1504.84v-.13a59,59,0,0,1-55.09-59h-68.58c0,69.33,55,125.77,123.67,127.8Z" transform="translate(-84.52 -26.59)"/><path d="M1759.81,1445.77h.13a59,59,0,0,1,59-55.09V1322.1c-69.33,0-125.77,55-127.8,123.67Z" transform="translate(-84.52 -26.59)"/></svg>