<svg id="Layer_1" data-name="Layer 1" xmlns="http://www.w3.org/2000/svg" viewBox="0 0 1650.52 1081.19"><title>lines</title><polyline points="453.26 441.42 453.26 372.84 714.42 372.84 714.42 441.42"/><polyline points="453.26 443.11 453.26 374.53 714.42 374.53 714.42 443.11"/><polyline points="453.26 546.49 453.26 477.9 714.42 477.9 714.42 546.49"/><path d="M588.4,0" transform="translate(-135.14)"/><path d="M715.57,128.23A127.5,127.5,0,1,1,588.07.73,127.5,127.5,0,0,1,715.57,128.23ZM588.07,69.31A58.92,58.92,0,1,0,647,128.23,58.92,58.92,0,0,0,588.07,69.31Z" transform="translate(-135.14)"/><polyline points="452.93 255.73 714.42 255.73 714.42 187.15 453.26 187.15 453.26 255.73"/><polyline points="565.86 69 452.93 69.31 714.42 68.58 714.42 0 453.26 0 453.26 68.58"/><path d="M701.16,187.15" transform="translate(-135.14)"/><polyline points="445.19 980.54 445.19 911.96 706.34 911.96 706.34 980.54"/><polyline points="445.19 982.23 445.19 913.65 706.34 913.65 706.34 982.23"/><path d="M580.33,539.12" transform="translate(-135.14)"/><polyline points="120.28 794.85 381.77 794.85 381.77 726.27 120.61 726.27 120.61 794.85"/><polyline points="120.28 607.7 381.77 607.7 381.77 539.12 120.61 539.12 120.61 607.7"/><path d="M258.81,726.07v-.14a59.09,59.09,0,0,1,0-117.9v-.13H375.7a127.41,127.41,0,0,0-113.06-68.78c-70.42,0-127.5,57.25-127.5,127.86s57.08,127.87,127.5,127.87A127.41,127.41,0,0,0,375.7,726.07Z" transform="translate(-135.14)"/><path d="M580,677" transform="translate(-135.14)"/><path d="M693.08,726.27" transform="translate(-135.14)"/><polyline points="1039.32 829.14 1300.81 829.14 1300.81 760.56 1039.65 760.56 1039.65 829.14"/><polyline points="1039.32 641.99 1300.81 641.99 1300.81 573.41 1039.65 573.41 1039.65 641.99"/><path d="M1177.84,760.36v-.14a59.09,59.09,0,0,1,0-117.9v-.13h116.9a127.41,127.41,0,0,0-113.06-68.78c-70.42,0-127.5,57.25-127.5,127.86s57.08,127.87,127.5,127.87a127.41,127.41,0,0,0,113.06-68.78Z" transform="translate(-135.14)"/><polyline points="1530.24 760.56 1268.75 760.56 1268.75 829.14 1529.91 829.14 1529.91 760.56"/><polyline points="1530.24 947.71 1268.75 947.71 1268.75 1016.29 1529.91 1016.29 1529.91 947.71"/><path d="M1662,829.34v.13a59.09,59.09,0,0,1,0,117.9v.14H1545.11a127.4,127.4,0,0,0,113.06,68.78c70.41,0,127.5-57.25,127.5-127.87s-57.09-127.86-127.5-127.86a127.4,127.4,0,0,0-113.06,68.78Z" transform="translate(-135.14)"/><polyline points="975.14 325.05 1236.63 325.05 1236.63 256.46 975.48 256.46 975.48 325.05"/><polyline points="975.14 137.9 1236.63 137.9 1236.63 69.31 975.48 69.31 975.48 137.9"/><path d="M1113.67,256.27v-.14a59.09,59.09,0,0,1,0-117.9v-.14h116.9a127.43,127.43,0,0,0-113.06-68.78c-70.42,0-127.5,57.25-127.5,127.87s57.08,127.87,127.5,127.87a127.43,127.43,0,0,0,113.06-68.78Z" transform="translate(-135.14)"/><polyline points="1466.07 256.46 1204.58 256.46 1204.58 325.05 1465.74 325.05 1465.74 256.46"/><polyline points="1466.07 443.62 1204.58 443.62 1204.58 512.2 1465.74 512.2 1465.74 443.62"/><path d="M1597.83,325.24v.14a59.09,59.09,0,0,1,0,117.9v.14H1480.94A127.41,127.41,0,0,0,1594,512.2c70.41,0,127.49-57.25,127.49-127.87S1664.41,256.46,1594,256.46a127.41,127.41,0,0,0-113.06,68.78Z" transform="translate(-135.14)"/><polyline points="632.13 894.04 893.62 894.04 893.62 825.46 632.46 825.46 632.46 894.04"/><polyline points="632.13 706.89 893.62 706.89 893.62 638.3 632.46 638.3 632.46 706.89"/><path d="M770.65,825.26v-.14a59.09,59.09,0,0,1,0-117.9v-.14h116.9a127.42,127.42,0,0,0-113.06-68.77c-70.42,0-127.5,57.24-127.5,127.86S704.07,894,774.49,894a127.43,127.43,0,0,0,113.06-68.78Z" transform="translate(-135.14)"/><polyline points="1123.05 825.46 861.56 825.46 861.56 894.04 1122.72 894.04 1122.72 825.46"/><polyline points="1123.05 1012.61 861.56 1012.61 861.56 1081.19 1122.72 1081.19 1122.72 1012.61"/><path d="M1254.81,894.23v.14a59.09,59.09,0,0,1,0,117.9v.14H1137.92A127.41,127.41,0,0,0,1251,1081.19c70.41,0,127.5-57.25,127.5-127.87S1321.39,825.46,1251,825.46a127.4,127.4,0,0,0-113.06,68.77Z" transform="translate(-135.14)"/><polyline points="1058.88 321.36 797.39 321.36 797.39 389.94 1058.55 389.94 1058.55 321.36"/><polyline points="1058.88 508.51 797.39 508.51 797.39 577.09 1058.55 577.09 1058.55 508.51"/><path d="M1190.64,390.14v.14a59.09,59.09,0,0,1,0,117.9v.13h-116.9a127.42,127.42,0,0,0,113.07,68.78c70.41,0,127.49-57.25,127.49-127.86s-57.08-127.87-127.49-127.87a127.42,127.42,0,0,0-113.07,68.78Z" transform="translate(-135.14)"/></svg>