<?xml version="1.0" encoding="utf-8"?>
<!-- Generator: Adobe Illustrator 23.0.1, SVG Export Plug-In . SVG Version: 6.00 Build 0)  -->
<svg version="1.1" id="Layer_1" xmlns="http://www.w3.org/2000/svg" xmlns:xlink="http://www.w3.org/1999/xlink" x="0px" y="0px"
	 viewBox="0 0 1920 1814.9" style="enable-background:new 0 0 1920 1814.9;" xml:space="preserve">
<polyline points="177.9,1278.9 246.5,1278.9 246.5,1540.1 177.9,1540.1 "/>
<polyline points="177.9,1033.6 246.5,1033.6 246.5,1294.8 177.9,1294.8 "/>
<polyline points="177.9,815.7 246.5,815.7 246.5,1076.8 177.9,1076.8 "/>
<path d="M893.3,153.7"/>
<path d="M774.8,154.8c0,70.4-57.1,127.5-127.5,127.5s-127.5-57.1-127.5-127.5S576.9,27.3,647.3,27.3S774.8,84.4,774.8,154.8z
	 M647.3,95.9c-32.5,0-58.9,26.4-58.9,58.9s26.4,58.9,58.9,58.9c32.5,0,58.9-26.4,58.9-58.9S679.9,95.9,647.3,95.9z"/>
<path d="M1789.4,154.8c0,70.4-57.1,127.5-127.5,127.5c-70.4,0-127.5-57.1-127.5-127.5s57.1-127.5,127.5-127.5
	C1732.4,27.3,1789.4,84.4,1789.4,154.8z M1661.9,95.9c-32.5,0-58.9,26.4-58.9,58.9s26.4,58.9,58.9,58.9c32.5,0,58.9-26.4,58.9-58.9
	S1694.5,95.9,1661.9,95.9z"/>
<path d="M1638.5,1263.2c0,70.4-57.1,127.5-127.5,127.5c-70.4,0-127.5-57.1-127.5-127.5s57.1-127.5,127.5-127.5
	C1581.5,1135.7,1638.5,1192.8,1638.5,1263.2z M1511,1204.3c-32.5,0-58.9,26.4-58.9,58.9s26.4,58.9,58.9,58.9s58.9-26.4,58.9-58.9
	S1543.6,1204.3,1511,1204.3z"/>
<path d="M1072.8,1207.8c0,70.4-57.1,127.5-127.5,127.5s-127.5-57.1-127.5-127.5s57.1-127.5,127.5-127.5S1072.8,1137.4,1072.8,1207.8
	z M945.3,1148.9c-32.5,0-58.9,26.4-58.9,58.9s26.4,58.9,58.9,58.9s58.9-26.4,58.9-58.9S977.8,1148.9,945.3,1148.9z"/>
<path d="M705.9,1150.8c0,70.4-57.1,127.5-127.5,127.5s-127.5-57.1-127.5-127.5s57.1-127.5,127.5-127.5S705.9,1080.4,705.9,1150.8z
	 M578.4,1091.9c-32.5,0-58.9,26.4-58.9,58.9s26.4,58.9,58.9,58.9s58.9-26.4,58.9-58.9S610.9,1091.9,578.4,1091.9z"/>
<path d="M1942.4,1263.2c0,70.4-57.1,127.5-127.5,127.5c-70.4,0-127.5-57.1-127.5-127.5s57.1-127.5,127.5-127.5
	C1885.3,1135.7,1942.4,1192.8,1942.4,1263.2z M1814.9,1204.3c-32.5,0-58.9,26.4-58.9,58.9s26.4,58.9,58.9,58.9
	c32.5,0,58.9-26.4,58.9-58.9S1847.4,1204.3,1814.9,1204.3z"/>
<path d="M339.5,340.9c0,70.4-57.1,127.5-127.5,127.5S84.5,411.3,84.5,340.9S141.6,213.4,212,213.4S339.5,270.5,339.5,340.9z
	 M212,282c-32.5,0-58.9,26.4-58.9,58.9s26.4,58.9,58.9,58.9s58.9-26.4,58.9-58.9S244.6,282,212,282z"/>
<path d="M1551.9,1955.1c0,70.4-57.1,127.5-127.5,127.5c-70.4,0-127.5-57.1-127.5-127.5c0-70.4,57.1-127.5,127.5-127.5
	C1494.8,1827.6,1551.9,1884.7,1551.9,1955.1z M1424.4,1896.2c-32.5,0-58.9,26.4-58.9,58.9c0,32.5,26.4,58.9,58.9,58.9
	s58.9-26.4,58.9-58.9C1483.3,1922.6,1457,1896.2,1424.4,1896.2z"/>
<polyline points="647.3,282.3 908.8,282.3 908.8,213.7 647.7,213.7 647.7,282.3 "/>
<polyline points="898,282.3 1159.5,282.3 1159.5,213.7 898.3,213.7 898.3,282.3 "/>
<polyline points="1155.5,282.3 1417,282.3 1417,213.7 1155.8,213.7 1155.8,282.3 "/>
<polyline points="1404.6,282.3 1666.1,282.3 1666.1,213.7 1404.9,213.7 1404.9,282.3 "/>
<path d="M1006.1,340.9"/>
<path d="M571.2,656.2"/>
<polyline points="177.7,706.7 177.7,968.2 246.3,968.2 246.3,707 177.7,707 "/>
<polyline points="364.9,706.7 364.9,968.2 433.5,968.2 433.5,707 364.9,707 "/>
<polyline points="364.9,811.8 364.9,1073.3 433.5,1073.3 433.5,812.1 364.9,812.1 "/>
<path d="M246.5,710.1h0.1c2-30.8,27.6-55.1,58.9-55.1c31.3,0,57,24.3,59,55.1h0.1v116.9c40.9-21.3,68.8-63.9,68.8-113.1
	c0-70.4-57.2-127.5-127.9-127.5c-70.6,0-127.9,57.1-127.9,127.5c0,49.2,27.9,91.8,68.8,113.1V710.1z"/>
<path d="M580,831.1"/>
<path d="M693.1,880.4"/>
<polyline points="1336.3,860.7 1597.8,860.7 1597.8,792.1 1336.6,792.1 1336.6,860.7 "/>
<polyline points="1336.3,673.6 1597.8,673.6 1597.8,605 1336.6,605 1336.6,673.6 "/>
<path d="M1339.7,792.4v-0.1c-30.8-2-55.1-27.6-55.1-58.9c0-31.3,24.3-57,55.1-59v-0.1h116.9c-21.3-40.9-63.9-68.8-113.1-68.8
	c-70.4,0-127.5,57.2-127.5,127.9c0,70.6,57.1,127.9,127.5,127.9c49.2,0,91.8-27.9,113.1-68.8H1339.7z"/>
<g>
	<polyline points="1827.2,792.6 1565.8,792.6 1565.8,861.2 1826.9,861.2 1826.9,792.6 	"/>
	<polyline points="1827.2,979.7 1565.8,979.7 1565.8,1048.3 1826.9,1048.3 1826.9,979.7 	"/>
	<path d="M1823.9,861.4v0.1c30.8,2,55.1,27.6,55.1,58.9c0,31.3-24.3,57-55.1,59v0.1H1707c21.3,40.9,63.9,68.8,113.1,68.8
		c70.4,0,127.5-57.2,127.5-127.9c0-70.6-57.1-127.9-127.5-127.9c-49.2,0-91.8,27.9-113.1,68.8H1823.9z"/>
</g>
<g>
	<polyline points="1956.1,1504 1814.6,1504 1814.6,1572.6 1955.8,1572.6 1955.8,1504 	"/>
	<polyline points="1956.1,1691.1 1694.6,1691.1 1694.6,1759.7 1955.8,1759.7 1955.8,1691.1 	"/>
	<path d="M1952.7,1572.8v0.1c30.8,2,55.1,27.6,55.1,58.9c0,31.3-24.3,57-55.1,59v0.1h-116.9c21.3,40.9,63.9,68.8,113.1,68.8
		c70.4,0,127.5-57.2,127.5-127.9c0-70.6-57.1-127.9-127.5-127.9c-49.2,0-91.8,27.9-113.1,68.8H1952.7z"/>
</g>
<polyline points="1597.9,1759.4 1859.3,1759.4 1859.3,1690.8 1598.2,1690.8 1598.2,1759.4 "/>
<polyline points="1543.3,1633.2 1543.3,1371.7 1474.7,1371.7 1474.7,1632.9 1543.3,1632.9 "/>
<polyline points="1367.8,1938.9 1367.8,1677.4 1299.2,1677.4 1299.2,1938.6 1367.8,1938.6 "/>
<polyline points="620.5,1680.9 620.5,1419.4 551.9,1419.4 551.9,1680.5 620.5,1680.5 "/>
<path d="M364.7,1535.3h-0.1c-2,30.8-27.6,55.1-58.9,55.1c-31.3,0-57-24.3-59-55.1h-0.1v-116.9c-40.9,21.3-68.8,63.9-68.8,113.1
	c0,70.4,57.2,127.5,127.9,127.5c70.6,0,127.9-57.1,127.9-127.5c0-49.2-27.9-91.8-68.8-113.1V1535.3z"/>
<path d="M807.3,1680.7v-0.2h0.1c2-30.8,27.6-55.1,59-55.1c31.3,0,57,24.3,58.9,55.1h0.1v0.2h68.7c-1.9-68.7-58.4-123.9-127.8-123.9
	c-69.4,0-125.9,55.1-127.8,123.9H807.3z"/>
<path d="M620.3,1680v0.2h0.1c2,30.8,27.6,55.1,59,55.1c31.3,0,57-24.3,58.9-55.1h0.1v-0.2h68.7c-1.9,68.7-58.4,123.9-127.8,123.9
	c-69.4,0-125.9-55.1-127.8-123.9H620.3z"/>
<path d="M1180.9,1680.7v-0.2h0.1c2-30.8,27.6-55.1,59-55.1c31.3,0,57,24.3,58.9,55.1h0.1v0.2h68.7c-1.9-68.7-58.4-123.9-127.8-123.9
	c-69.4,0-125.9,55.1-127.8,123.9H1180.9z"/>
<path d="M993.9,1680v0.2h0.1c2,30.8,27.6,55.1,59,55.1c31.3,0,57-24.3,58.9-55.1h0.1v-0.2h68.7c-1.9,68.7-58.4,123.9-127.8,123.9
	c-69.4,0-125.9-55.1-127.8-123.9H993.9z"/>
<path d="M551.8,1419.4h-0.1c-2-30.8-27.6-55.1-58.9-55.1c-31.3,0-57,24.3-59,55.1h-0.1v116.9c-40.9-21.3-68.8-63.9-68.8-113.1
	c0-70.4,57.2-127.5,127.9-127.5c70.6,0,127.9,57.1,127.9,127.5c0,49.2-27.9,91.8-68.8,113.1V1419.4z"/>
<polyline points="901.6,486.7 1163.1,486.7 1163.1,418.1 882.5,418.1 882.5,486.7 "/>
<polyline points="1032.4,486.7 1293.9,486.7 1293.9,418.1 1032.7,418.1 1032.7,486.7 "/>
<polyline points="1286.2,486.7 1547.7,486.7 1547.7,418.1 1286.6,418.1 1286.6,486.7 "/>
<g>
	<polyline points="1796.8,417.9 1535.4,417.9 1535.4,486.5 1796.5,486.5 1796.5,417.9 	"/>
	<polyline points="1796.8,605 1535.4,605 1535.4,673.6 1796.5,673.6 1796.5,605 	"/>
	<path d="M1793.5,486.7v0.1c30.8,2,55.1,27.6,55.1,58.9c0,31.3-24.3,57-55.1,59v0.1h-116.9c21.3,40.9,63.9,68.8,113.1,68.8
		c70.4,0,127.5-57.2,127.5-127.9c0-70.6-57.1-127.9-127.5-127.9c-49.2,0-91.8,27.9-113.1,68.8H1793.5z"/>
</g>
<polyline points="767.3,1048.1 1028.8,1048.1 1028.8,979.5 767.6,979.5 767.6,1048.1 "/>
<polyline points="767.3,861 1028.8,861 1028.8,792.4 767.6,792.4 767.6,861 "/>
<path d="M770.7,979.3v-0.1c-30.8-2-55.1-27.6-55.1-58.9c0-31.3,24.3-57,55.1-59v-0.1h116.9c-21.3-40.9-63.9-68.8-113.1-68.8
	c-70.4,0-127.5,57.2-127.5,127.9c0,70.6,57.1,127.9,127.5,127.9c49.2,0,91.8-27.9,113.1-68.8H770.7z"/>
<g>
	<polyline points="1266.2,979.5 1004.7,979.5 1004.7,1048.1 1265.9,1048.1 1265.9,979.5 	"/>
	<polyline points="1266.2,1166.7 1004.7,1166.7 1004.7,1235.3 1265.9,1235.3 1265.9,1166.7 	"/>
	<path d="M1262.8,1048.3v0.1c30.8,2,55.1,27.6,55.1,58.9c0,31.3-24.3,57-55.1,59v0.1h-116.9c21.3,40.9,63.9,68.8,113.1,68.8
		c70.4,0,127.5-57.2,127.5-127.9c0-70.6-57.1-127.9-127.5-127.9c-49.2,0-91.8,27.9-113.1,68.8H1262.8z"/>
</g>
<g>
	<polyline points="1065.3,605.2 803.9,605.2 803.9,673.8 1065,673.8 1065,605.2 	"/>
	<polyline points="1065.3,792.4 803.9,792.4 803.9,861 1065,861 1065,792.4 	"/>
	<path d="M1062,674v0.1c30.8,2,55.1,27.6,55.1,58.9c0,31.3-24.3,57-55.1,59v0.1H945.1c21.3,40.9,63.9,68.8,113.1,68.8
		c70.4,0,127.5-57.2,127.5-127.9c0-70.6-57.1-127.9-127.5-127.9c-49.2,0-91.8,27.9-113.1,68.8H1062z"/>
</g>
<g>
	<polyline points="640.1,418.1 901.6,418.1 901.6,486.7 640.5,486.7 640.5,418.1 	"/>
	<polyline points="640.1,605.2 901.6,605.2 901.6,673.8 640.5,673.8 640.5,605.2 	"/>
	<path d="M643.5,486.9v0.1c-30.8,2-55.1,27.6-55.1,58.9c0,31.3,24.3,57,55.1,59v0.1h116.9c-21.3,40.9-63.9,68.8-113.1,68.8
		c-70.4,0-127.5-57.2-127.5-127.9c0-70.6,57.1-127.9,127.5-127.9c49.2,0,91.8,27.9,113.1,68.8H643.5z"/>
</g>
<path d="M1598.3,1690.9v-0.1c-30.8-2-55.1-27.6-55.1-58.9h-68.6c0,69.3,55,125.8,123.7,127.8V1690.9z"/>
<path d="M488.5,1129.6v-0.1c-30.8-2-55.1-27.6-55.1-58.9h-68.6c0,69.3,55,125.8,123.7,127.8V1129.6z"/>
<path d="M1815.1,1503.8v-0.1c-30.8-2-55.1-27.6-55.1-58.9h-68.6c0,69.3,55,125.8,123.7,127.8V1503.8z"/>
<path d="M1759.8,1445.8h0.1c2-30.8,27.6-55.1,58.9-55.1v-68.6c-69.3,0-125.8,55-127.8,123.7H1759.8z"/>
</svg>
